<!DOCTYPE svg PUBLIC "-//W3C//DTD SVG 1.1//EN" "http://www.w3.org/Graphics/SVG/1.1/DTD/svg11.dtd">
<!-- Uploaded to: SVG Repo, www.svgrepo.com, Transformed by: SVG Repo Mixer Tools -->
<svg fill="#ffffff" width="800px" height="800px" viewBox="-7.2 -7.2 38.40 38.40" xmlns="http://www.w3.org/2000/svg" stroke="#ffffff" stroke-width="0.00024000000000000003">
<g id="SVGRepo_bgCarrier" stroke-width="0">
<path transform="translate(-7.2, -7.2), scale(2.4)" fill="#004AAD" d="M9.166.33a2.25 2.25 0 00-2.332 0l-5.25 3.182A2.25 2.25 0 00.5 5.436v5.128a2.25 2.25 0 001.084 1.924l5.25 3.182a2.25 2.25 0 002.332 0l5.25-3.182a2.25 2.25 0 001.084-1.924V5.436a2.25 2.25 0 00-1.084-1.924L9.166.33z" strokewidth="0"/>
</g>
<g id="SVGRepo_tracerCarrier" stroke-linecap="round" stroke-linejoin="round"/>
<g id="SVGRepo_iconCarrier">
<path d="M20.71,6.3l0,0-5-5-.005,0A1.1,1.1,0,0,0,15,1H4A1,1,0,0,0,3,2V22a1,1,0,0,0,1,1H20a1,1,0,0,0,1-1V7A1.081,1.081,0,0,0,20.71,6.3ZM19,21H5V3h9V7a1,1,0,0,0,1,1h4ZM15.707,10.293a1,1,0,0,1,0,1.414l-4,4a1,1,0,0,1-1.347.061l-2-1.666a1,1,0,0,1,1.28-1.537l1.3,1.082,3.355-3.354A1,1,0,0,1,15.707,10.293Z"/>
</g>
</svg>