<!DOCTYPE svg PUBLIC "-//W3C//DTD SVG 1.1//EN" "http://www.w3.org/Graphics/SVG/1.1/DTD/svg11.dtd">

<!-- Uploaded to: SVG Repo, www.svgrepo.com, Transformed by: SVG Repo Mixer Tools -->
<svg fill="#ffffff" height="800px" width="800px" version="1.1" id="Layer_1" xmlns="http://www.w3.org/2000/svg" xmlns:xlink="http://www.w3.org/1999/xlink" viewBox="-90.39 -90.39 482.08 482.08" xml:space="preserve" stroke="#ffffff" stroke-width="0.0030129500000000004">

<g id="SVGRepo_bgCarrier" stroke-width="0">

<rect x="-90.39" y="-90.39" width="482.08" height="482.08" rx="241.04" fill="#004AAD" strokewidth="0"/>

</g>

<g id="SVGRepo_tracerCarrier" stroke-linecap="round" stroke-linejoin="round"/>

<g id="SVGRepo_iconCarrier"> <g> <g> <path d="M294.127,276.663h-13.091V117.976c0-3.959-3.21-7.169-7.168-7.169h-57.149c-3.959,0-7.169,3.209-7.169,7.169v158.686 h-23.762V165.6c0-3.959-3.21-7.169-7.168-7.169h-57.15c-3.959,0-7.169,3.209-7.169,7.169v111.062H90.538v-63.437 c0-3.959-3.209-7.168-7.169-7.168H26.218c-3.959,0-7.169,3.209-7.169,7.168v63.437H7.168c-3.959,0-7.169,3.209-7.169,7.168 C0,287.791,3.209,291,7.168,291h286.958c3.959,0,7.169-3.209,7.169-7.169C301.295,279.872,298.085,276.663,294.127,276.663z M76.2,276.663H33.387v-3.318l26.702-26.702c2.8-2.8,2.8-7.338,0-10.138s-7.338-2.8-10.138,0l-16.564,16.564v-32.675H76.2V276.663 z M171.449,276.663h-37.762l22.383-22.383c2.8-2.799,2.8-7.338,0-10.138c-2.799-2.8-7.338-2.8-10.138,0l-17.296,17.296V225.72 l27.434-27.434c2.8-2.799,2.8-7.338,0-10.138c-2.799-2.8-7.338-2.8-10.138,0l-17.296,17.296v-32.675h42.813V276.663z M266.699,276.663L266.699,276.663h-23.301l6.699-6.699c2.799-2.8,2.799-7.338,0.001-10.138c-2.799-2.8-7.338-2.8-10.138,0 l-16.073,16.073V238.42l26.211-26.211c2.799-2.8,2.799-7.338,0-10.138c-2.8-2.8-7.338-2.8-10.139,0l-16.072,16.073v-38.991 l26.21-26.21c2.799-2.8,2.799-7.338,0.001-10.138c-2.8-2.8-7.338-2.799-10.139,0l-16.072,16.073v-33.733h42.812V276.663z"/> </g> </g> <g> <g> <path d="M296.284,21.292l-28.901-10.559c-3.72-1.359-7.835,0.555-9.193,4.273c-1.359,3.719,0.554,7.835,4.273,9.193l13.594,4.967 L5.771,164.635c-3.539,1.774-4.97,6.081-3.196,9.621c1.257,2.509,3.787,3.958,6.413,3.958c1.08,0,2.176-0.245,3.207-0.762 L281.201,42.625l-4.74,12.975c-1.359,3.719,0.555,7.835,4.273,9.193c3.719,1.36,7.834-0.554,9.193-4.273l10.932-29.924 C302.242,26.811,300.127,22.506,296.284,21.292z"/> </g> </g> </g>

</svg>