<svg width="30" height="26" viewBox="0 0 30 26" fill="none" xmlns="http://www.w3.org/2000/svg">
<path d="M12.1875 23.3125C9.96247 23.3125 7.78739 22.6527 5.93734 21.4165C4.08729 20.1804 2.64535 18.4234 1.79386 16.3677C0.942374 14.312 0.719587 12.05 1.15367 9.86774C1.58775 7.68545 2.65921 5.68089 4.23255 4.10755C5.80589 2.53421 7.81045 1.46275 9.99274 1.02867C12.175 0.594587 14.437 0.817374 16.4927 1.66886C18.5484 2.52035 20.3054 3.96229 21.5415 5.81234C22.7777 7.66239 23.4375 9.83747 23.4375 12.0625C23.4375 15.0462 22.2522 17.9077 20.1425 20.0175C18.0327 22.1272 15.1712 23.3125 12.1875 23.3125ZM12.1875 2.6875C10.3333 2.6875 8.52074 3.23734 6.97903 4.26748C5.43732 5.29762 4.23571 6.76179 3.52613 8.47485C2.81656 10.1879 2.63091 12.0729 2.99264 13.8915C3.35438 15.71 4.24726 17.3805 5.55838 18.6916C6.8695 20.0027 8.53996 20.8956 10.3585 21.2574C12.1771 21.6191 14.0621 21.4334 15.7752 20.7239C17.4882 20.0143 18.9524 18.8127 19.9825 17.271C21.0127 15.7293 21.5625 13.9167 21.5625 12.0625C21.5625 10.8314 21.32 9.61227 20.8489 8.47485C20.3777 7.33742 19.6872 6.30393 18.8166 5.43338C17.9461 4.56283 16.9126 3.87227 15.7752 3.40113C14.6377 2.93 13.4186 2.6875 12.1875 2.6875Z" fill="#EDEDED"/>
<path d="M28.125 25.1875C27.9222 25.1875 27.7248 25.1217 27.5625 25L20.0625 19.375C19.964 19.3011 19.881 19.2086 19.8183 19.1027C19.7556 18.9967 19.7143 18.8795 19.6969 18.7576C19.6795 18.6357 19.6863 18.5116 19.7168 18.3923C19.7474 18.2731 19.8011 18.161 19.875 18.0625C19.9489 17.964 20.0414 17.881 20.1474 17.8183C20.2533 17.7556 20.3705 17.7143 20.4924 17.6969C20.6143 17.6795 20.7384 17.6863 20.8577 17.7168C20.9769 17.7474 21.089 17.8011 21.1875 17.875L28.6875 23.5C28.8864 23.6492 29.0179 23.8713 29.0531 24.1174C29.0882 24.3636 29.0242 24.6136 28.875 24.8125C28.7877 24.9289 28.6744 25.0234 28.5443 25.0885C28.4141 25.1536 28.2705 25.1875 28.125 25.1875Z" fill="#EDEDED"/>
<path d="M15.9375 11.125H8.4375V13H15.9375V11.125Z" fill="#EDEDED"/>
<path d="M13.125 8.3125H11.25V15.8125H13.125V8.3125Z" fill="#EDEDED"/>
</svg>
