<!DOCTYPE svg PUBLIC "-//W3C//DTD SVG 1.1//EN" "http://www.w3.org/Graphics/SVG/1.1/DTD/svg11.dtd">

<!-- Uploaded to: SVG Repo, www.svgrepo.com, Transformed by: SVG Repo Mixer Tools -->
<svg fill="#fff" width="800px" height="800px" viewBox="-8 -8 48.00 48.00" id="icon" xmlns="http://www.w3.org/2000/svg" stroke="#fff" stroke-width="0.00032">

<g id="SVGRepo_bgCarrier" stroke-width="0" transform="translate(0,0), scale(1)">

<path transform="translate(-8, -8), scale(3)" fill="#004AAD" d="M9.166.33a2.25 2.25 0 00-2.332 0l-5.25 3.182A2.25 2.25 0 00.5 5.436v5.128a2.25 2.25 0 001.084 1.924l5.25 3.182a2.25 2.25 0 002.332 0l5.25-3.182a2.25 2.25 0 001.084-1.924V5.436a2.25 2.25 0 00-1.084-1.924L9.166.33z" strokewidth="0"/>

</g>

<g id="SVGRepo_tracerCarrier" stroke-linecap="round" stroke-linejoin="round" stroke="#CCCCCC" stroke-width="0.192"/>

<g id="SVGRepo_iconCarrier">

<defs>

<style>.cls-1{fill:none;}</style>

</defs>

<title>shop</title>

<path d="M30,10.68l-2-6A1,1,0,0,0,27,4H5a1,1,0,0,0-1,.68l-2,6A1.19,1.19,0,0,0,2,11v6a1,1,0,0,0,1,1H4V28H6V18h6V28H28V18h1a1,1,0,0,0,1-1V11A1.19,1.19,0,0,0,30,10.68ZM26,26H14V18H26Zm2-10H24V12H22v4H17V12H15v4H10V12H8v4H4V11.16L5.72,6H26.28L28,11.16Z" transform="translate(0)"/>

<rect id="_Transparent_Rectangle_" data-name="&lt;Transparent Rectangle&gt;" class="cls-1" width="32" height="32"/>

</g>

</svg>