<!DOCTYPE svg PUBLIC "-//W3C//DTD SVG 1.1//EN" "http://www.w3.org/Graphics/SVG/1.1/DTD/svg11.dtd">

<!-- Uploaded to: SVG Repo, www.svgrepo.com, Transformed by: SVG Repo Mixer Tools -->
<svg width="800px" height="800px" viewBox="-4.8 -4.8 33.60 33.60" fill="none" xmlns="http://www.w3.org/2000/svg" stroke="#000">

<g id="SVGRepo_bgCarrier" stroke-width="0">

<path transform="translate(-4.8, -4.8), scale(2.1)" fill="#fff" d="M9.166.33a2.25 2.25 0 00-2.332 0l-5.25 3.182A2.25 2.25 0 00.5 5.436v5.128a2.25 2.25 0 001.084 1.924l5.25 3.182a2.25 2.25 0 002.332 0l5.25-3.182a2.25 2.25 0 001.084-1.924V5.436a2.25 2.25 0 00-1.084-1.924L9.166.33z" strokewidth="0"/>

</g>

<g id="SVGRepo_tracerCarrier" stroke-linecap="round" stroke-linejoin="round"/>

<g id="SVGRepo_iconCarrier">

<path d="M4 21V18.5C4 15.4624 6.46243 13 9.5 13H14.5C17.5376 13 20 15.4624 20 18.5V21M8 21V18M16 21V18M11 9H7.5C6.67157 9 6 8.32843 6 7.5V6.5C6 5.16725 6.57938 3.96983 7.5 3.14585M18 8.00001V6.50001C18 5.16726 17.4206 3.96983 16.5 3.14585M20 7.5V6M4 7.5V6M16 7C16 9.20914 14.2091 11 12 11C9.79086 11 8 9.20914 8 7C8 4.79086 9.79086 3 12 3C14.2091 3 16 4.79086 16 7Z" stroke="#000" stroke-linecap="round" stroke-linejoin="round" stroke-width="1.4"/>

</g>

</svg>